# xmcd
#
# Track frame offsets:
#	150
#	12469
#	24405
#	36040
#	48824
#	61627
#	76364
#	89502
#	103064
#	115751
#	126887
#	137522
#	148476
#	163778
#	176138
#	187581
#	199516
#	210887
#
# Disc length: 2987 seconds
#
# Revision: 1
# Processed by: cddbd v1.5.2PL0 Copyright (c) Steve Scherf et al.
# Submitted via: audiograbber 1.83.01
#
DISCID=ea0ba912
DTITLE=Williamson II,Sonny Boy - Nine below zero 1951-1962 [CD 3)
DYEAR=2017
DGENRE=Blues
TTITLE0=I ain't beggin' nobody (take 3)
TTITLE1=From the bottom (take 6)
TTITLE2=Don't start me talkin'
TTITLE3=All my love in vain
TTITLE4=Keep it to yourself
TTITLE5=The key (to your door)
TTITLE6=Let me explain
TTITLE7=Your imagination
TTITLE8=No nights by myself
TTITLE9=Boppin' with Sonny
TTITLE10=Fattening frogs for snakes
TTITLE11=I don't know
TTITLE12=Cross my heart
TTITLE13=Dissatisfied
TTITLE14=Born blind
TTITLE15=Ninety-nine
TTITLE16=Your funeral and my trial
TTITLE17=Wake me baby
EXTD=
EXTT0=
EXTT1=
EXTT2=
EXTT3=
EXTT4=
EXTT5=
EXTT6=
EXTT7=
EXTT8=
EXTT9=
EXTT10=
EXTT11=
EXTT12=
EXTT13=
EXTT14=
EXTT15=
EXTT16=
EXTT17=
PLAYORDER=
